<svg xmlns="http://www.w3.org/2000/svg" viewBox="0 0 800 600" role="img" aria-label="Persianas — imagem de exemplo, substitua por foto real">
  <rect width="800" height="600" fill="#FBF9F4"/>
  <path d="M386.7,341.7 Q386.7,341.7 370.7,403.5 Q354.7,465.3 292.9,489.3 Q231.1,513.4 174.8,483.9 Q118.5,454.4 78.8,398.1 Q39.0,341.7 70.6,277.3 Q102.2,212.8 166.7,192.6 Q231.1,172.4 294.0,194.1 Q356.9,215.9 371.8,278.8 Z" fill="#9DBFC0" opacity="0.16"/>
  <path d="M698.1,338.8 Q698.1,338.8 661.9,400.7 Q625.7,462.5 563.9,490.2 Q502.0,517.8 438.6,491.7 Q375.2,465.7 344.2,402.2 Q313.2,338.8 340.4,271.6 Q367.6,204.4 434.8,177.2 Q502.0,150.0 562.4,184.1 Q622.7,218.1 660.4,278.5 Z" fill="#5C8B8E" opacity="0.22"/>
  <path d="M604.0,323.9 Q604.0,323.9 596.9,390.5 Q589.8,457.2 523.1,470.2 Q456.4,483.2 391.8,468.1 Q327.2,453.1 307.4,388.5 Q287.6,323.9 310.2,262.1 Q332.8,200.3 394.6,173.2 Q456.4,146.0 521.8,169.6 Q587.2,193.1 595.6,258.5 Z" fill="#9DBFC0" opacity="0.28"/>
  
  <g transform="translate(330 230) scale(2.9)"><rect x="9" y="8" width="30" height="32" rx="2" fill="none" stroke="#4a443c" stroke-width="2.2"/><path d="M9 16 h30 M9 22 h30 M9 28 h30 M9 34 h30" stroke="#4a443c" stroke-width="1.8" stroke-linecap="round"/></g>
  <text x="400" y="554" text-anchor="middle" font-family="Georgia, serif" font-size="34" letter-spacing="2" fill="#4a443c">Persianas</text>
</svg>
